<svg width="40" height="40" viewBox="0 0 40 40" fill="none" xmlns="http://www.w3.org/2000/svg">
<g clip-path="url(#clip0_17_127)">
<path d="M20 40C31.0457 40 40 31.0457 40 20C40 8.95431 31.0457 0 20 0C8.95431 0 0 8.95431 0 20C0 31.0457 8.95431 40 20 40Z" fill="white"/>
<path d="M25.0279 20.783H21.4591V33.8573H16.0522V20.783H13.4806V16.1882H16.0522V13.2148C16.0522 11.0886 17.0622 7.75903 21.5073 7.75903L25.5124 7.77579V12.2358H22.6064C22.1298 12.2358 21.4595 12.474 21.4595 13.4883V16.1925H25.5003L25.0279 20.783Z" fill="#2D76F9"/>
</g>
<defs>
<clipPath id="clip0_17_127">
<rect width="40" height="40" fill="white"/>
</clipPath>
</defs>
</svg>
