<svg width="64" height="64" viewBox="0 0 64 64" fill="none" xmlns="http://www.w3.org/2000/svg">
<circle cx="32" cy="32" r="32" fill="#589AFF"/>
<path fill-rule="evenodd" clip-rule="evenodd" d="M32 22C35.87 22 39 25.13 39 29C39 34.25 32 42 32 42C32 42 25 34.25 25 29C25 25.13 28.13 22 32 22ZM27 29C27 31.85 29.92 36.21 32 38.88C34.12 36.19 37 31.88 37 29C37 26.24 34.76 24 32 24C29.24 24 27 26.24 27 29ZM32 31.5C30.6193 31.5 29.5 30.3807 29.5 29C29.5 27.6193 30.6193 26.5 32 26.5C33.3807 26.5 34.5 27.6193 34.5 29C34.5 30.3807 33.3807 31.5 32 31.5Z" fill="white"/>
</svg>
