<svg width="64" height="64" viewBox="0 0 64 64" fill="none" xmlns="http://www.w3.org/2000/svg">
<circle cx="32" cy="32" r="32" fill="#edcf2f"/>
<path fill-rule="evenodd" clip-rule="evenodd" d="M26.54 25C26.6 25.89 26.75 26.76 26.99 27.59L25.79 28.79C25.38 27.59 25.12 26.32 25.03 25H26.54ZM36.4 37.02C37.25 37.26 38.12 37.41 39 37.47V38.96C37.68 38.87 36.41 38.61 35.2 38.21L36.4 37.02ZM27.5 23H24C23.45 23 23 23.45 23 24C23 33.39 30.61 41 40 41C40.55 41 41 40.55 41 40V36.51C41 35.96 40.55 35.51 40 35.51C38.76 35.51 37.55 35.31 36.43 34.94C36.33 34.9 36.22 34.89 36.12 34.89C35.86 34.89 35.61 34.99 35.41 35.18L33.21 37.38C30.38 35.93 28.06 33.62 26.62 30.79L28.82 28.59C29.1 28.31 29.18 27.92 29.07 27.57C28.7 26.45 28.5 25.25 28.5 24C28.5 23.45 28.05 23 27.5 23Z" fill="white"/>
</svg>
