<svg width="40" height="40" viewBox="0 0 40 40" fill="none" xmlns="http://www.w3.org/2000/svg">
<g clip-path="url(#clip0_17_132)">
<path d="M20.0002 39.9996C31.0458 39.9996 40.0001 31.0454 40.0001 19.9998C40.0001 8.95423 31.0458 0 20.0002 0C8.95464 0 0.000411987 8.95423 0.000411987 19.9998C0.000411987 31.0454 8.95464 39.9996 20.0002 39.9996Z" fill="white"/>
<path d="M32.2508 14.3736C31.3937 14.7537 30.4718 15.0107 29.5049 15.1255C30.4921 14.534 31.2497 13.5982 31.6073 12.4812C30.6836 13.0292 29.66 13.4267 28.5716 13.641C27.6995 12.7122 26.4571 12.1318 25.0813 12.1318C22.4416 12.1318 20.3008 14.2727 20.3008 16.9124C20.3008 17.2871 20.3432 17.6518 20.4252 18.0019C16.4522 17.8026 12.9294 15.8995 10.5714 13.0064C10.16 13.7123 9.924 14.534 9.924 15.41C9.924 17.0682 10.7686 18.532 12.0506 19.3891C11.2674 19.3645 10.5297 19.1495 9.8855 18.7905C9.88514 18.8108 9.88514 18.8311 9.88514 18.8511C9.88514 21.1674 11.5337 23.0993 13.7202 23.5382C13.3195 23.648 12.8963 23.7061 12.461 23.7061C12.1522 23.7061 11.8531 23.6765 11.5615 23.6209C12.1697 25.5197 13.9348 26.9019 16.0272 26.9408C14.3908 28.2232 12.3298 28.9872 10.0894 28.9872C9.70439 28.9872 9.32292 28.9647 8.94965 28.9202C11.0641 30.2771 13.5776 31.0682 16.2771 31.0682C25.0702 31.0682 29.8789 23.7838 29.8789 17.466C29.8789 17.2589 29.8743 17.0525 29.865 16.8478C30.7998 16.174 31.6101 15.3323 32.2508 14.3736Z" fill="#2D76F9"/>
</g>
<defs>
<clipPath id="clip0_17_132">
<rect width="40" height="40" fill="white"/>
</clipPath>
</defs>
</svg>
